# xmcd
#
# Track frame offsets: 
#        150
#        8222
#        27087
#        46482
#        61555
#        86545
#        106157
#        126926
#        146002
#        165722
#        181542
#        200425
#        215145
#
# Disc length: 3138 seconds
#
# Revision: 1
# Processed by: cddbd v1.5.2PL0 Copyright (c) Steve Scherf et al.
# Submitted via: ExactAudioCopy v0.99pb5
#
DISCID=a90c400d
DTITLE=Birdman - Priceless
DYEAR=2009
DGENRE=Hip Hop
TTITLE0=Intro
TTITLE1=Been About Money
TTITLE2=Money To Blow (feat. Drake and Lil Wayne)
TTITLE3=Money Machine
TTITLE4=Priceless (feat. Lil Wayne)
TTITLE5=Bring It Back (feat. Lil Wayne)
TTITLE6=Nightclub
TTITLE7=4 My Town (Play Ball)(feat. Drake and Lil Wayne)
TTITLE8=Hustle (feat. Gudda)
TTITLE9=Shinin (feat. T-Pain)
TTITLE10=Mo Milly (feat. Drake and Bun B)
TTITLE11=I Want It All (feat. Lil Wayne and Kevin Rudolf)
TTITLE12=Always Strapped (Remix)(feat. Lil Wayne and Mackmaine)
EXTD=
EXTT0=
EXTT1=
EXTT2=
EXTT3=
EXTT4=
EXTT5=
EXTT6=
EXTT7=
EXTT8=
EXTT9=
EXTT10=
EXTT11=
EXTT12=
PLAYORDER=
